# xmcd
#
# Track frame offsets:
#   150
#   13700
#   35420
#   50765
#
# Disc length: 980 seconds
#
# Revision: 0
# Processed by: cddbd v1.4PL0 Copyright (c) Steve Scherf et al.
# Submitted via: uFREEDB ActiveX Control (MinMusik) 1.4 (0.9)
#
DISCID=2d03d204
DTITLE=Edin Ådahl - Alibi - Minnen Promo single
DYEAR=1994
DGENRE=Pop
TTITLE0=Alibi (7" mix)
TTITLE1=Alibi (12" mix)
TTITLE2=Minnen (7" mix)
TTITLE3=Minnen (12" mix)
EXTD=
EXTT0=
EXTT1=
EXTT2=
EXTT3=
PLAYORDER=
